<svg xmlns="http://www.w3.org/2000/svg" viewBox="0 0 278 24.8"><defs><style>.a{fill:#231f20;}</style></defs><title>Raw Materials Art Supplies</title><path class="a" d="M19.3,26.19H14.56l-3.08-6.9V16.88a2,2,0,0,0,2-2.22c0-1.45-.74-2.06-1.95-2.06a5.44,5.44,0,0,0-.94.11V23.34L11.8,24v2.22H5.08V24l1.19-.63v-11l-1.16-.63V9.47h6.51c4.7,0,6.52,1.56,6.52,4.76a4.07,4.07,0,0,1-3,4.3,4.46,4.46,0,0,1,1.23,1.22l2.18,3.79.76.43Z" transform="translate(-5.08 -7.01)"/><path class="a" d="M25.82,12.76c2.27,0,4.1.94,4.1,4.88v5.88l1,.58v2.09H26.64l-.45-1.5a5,5,0,0,1-3.55,1.75c-2.27,0-3.48-1.73-3.48-4,0-3,1.63-4,5-4h1.56v-.79c0-1.53-.79-1.93-1.46-1.93a8.6,8.6,0,0,0-1.23.07l-.6,1.61H20.14V14.28A13.19,13.19,0,0,1,25.82,12.76Zm-.07,9.43V20.62H24.69a1.16,1.16,0,0,0-1.26,1.32c0,.84.49,1.3,1,1.3S25.38,22.85,25.75,22.19Z" transform="translate(-5.08 -7.01)"/><path class="a" d="M49.3,15.2l-.89.53L45.23,26.19H41.67L40.27,21A8.93,8.93,0,0,1,40,18.94,11.1,11.1,0,0,1,39.6,21l-1.51,5.19H34.56L31.35,15.73l-.86-.53V13.06h6.39V15.2l-.91.53.94,5.55,2.15-8.22h3.21L44,21.33l1.19-5.6-.89-.53V13.06h5Z" transform="translate(-5.08 -7.01)"/><path class="a" d="M72.66,11.74l-1.16.58,1.43,11,1.16.63v2.27H67.2V23.92l1.19-.63-.59-6.21a29.08,29.08,0,0,1-.1-2.95c-.15,1-.27,1.58-.47,2.64l-2.12,9.42H61L59,17c-.22-1-.39-1.78-.54-2.87,0,1.12-.07,2.11-.12,2.87l-.55,6.29,1.16.63v2.27h-5.8V23.92l1.19-.63L55.8,12.37l-1.16-.63V9.47h6.79l2.22,10.79L66,9.47h6.69Z" transform="translate(-5.08 -7.01)"/><path class="a" d="M80.86,12.76c2.27,0,4.1.94,4.1,4.88v5.88l1,.58v2.09H81.67l-.44-1.5a5,5,0,0,1-3.55,1.75c-2.28,0-3.49-1.73-3.49-4,0-3,1.63-4,5-4h1.56v-.79c0-1.53-.79-1.93-1.46-1.93a8.84,8.84,0,0,0-1.24.07l-.59,1.61H75.18V14.28A13.15,13.15,0,0,1,80.86,12.76Zm-.07,9.43V20.62H79.72a1.16,1.16,0,0,0-1.25,1.32c0,.84.49,1.3,1,1.3S80.42,22.85,80.79,22.19Z" transform="translate(-5.08 -7.01)"/><path class="a" d="M86.17,13.42l1.5-.36V10.34l2.82-.64h1.36v3.36h3.33V16H91.85v5c0,1.9.42,2.41,1.23,2.41a5.41,5.41,0,0,0,1.66-.3l.69,2.34a9.73,9.73,0,0,1-4,1c-2.23,0-3.81-1.14-3.81-5.39V16h-1.5Z" transform="translate(-5.08 -7.01)"/><path class="a" d="M100.05,20.44c0,2.16.79,2.87,2.32,2.87a8.17,8.17,0,0,0,3.48-.81l.94,2.21a11.36,11.36,0,0,1-5.63,1.73c-3.24,0-5.44-2.11-5.44-6.64,0-4.7,1.93-7,5.83-7,3.06,0,5.26,1.62,5.26,5.31a11.66,11.66,0,0,1-.25,2.37Zm.07-2.44h2.57c.12-1.78-.55-2.29-1.16-2.29S100.29,16,100.12,18Z" transform="translate(-5.08 -7.01)"/><path class="a" d="M117.18,18.33h-2.35l-.46-1.78a3.81,3.81,0,0,0-1.56,2.06v4.88l1.63.61v2.09h-6.86V24.1l1.06-.58V15.94l-1.06-.56v-2l3.23-.48h1.43l.4,2.44c.94-1.63,2-2.52,3.26-2.52a2.18,2.18,0,0,1,1.28.33Z" transform="translate(-5.08 -7.01)"/><path class="a" d="M122.86,23.52l1,.58v2.09h-6.27V24.1l1.06-.58V15.94l-1.06-.56v-2l3.72-.48h1.51ZM120.56,7c1.66,0,2.57.86,2.57,2.36s-.91,2.29-2.57,2.29-2.46-.79-2.46-2.29A2.17,2.17,0,0,1,120.56,7Z" transform="translate(-5.08 -7.01)"/><path class="a" d="M131.06,12.76c2.27,0,4.1.94,4.1,4.88v5.88l1,.58v2.09h-4.32l-.44-1.5a5,5,0,0,1-3.56,1.75c-2.27,0-3.48-1.73-3.48-4,0-3,1.63-4,5-4H131v-.79c0-1.53-.79-1.93-1.45-1.93a8.75,8.75,0,0,0-1.24.07l-.59,1.61h-2.32V14.28A13.15,13.15,0,0,1,131.06,12.76ZM131,22.19V20.62h-1.06a1.17,1.17,0,0,0-1.26,1.32c0,.84.5,1.3,1,1.3S130.61,22.85,131,22.19Z" transform="translate(-5.08 -7.01)"/><path class="a" d="M143,26.19h-6.27V24.1l1.06-.58V10.21l-1.06-.51v-2l3.73-.46h1.5V23.52l1,.58Z" transform="translate(-5.08 -7.01)"/><path class="a" d="M152.69,16.8h-2.32l-.4-1a5.36,5.36,0,0,0-1-.12c-.81,0-1.16.3-1.16.73s.22.54,1.66,1.17c3,1.33,3.65,2.78,3.65,4.79,0,2.74-2,4.09-4.42,4.09a11,11,0,0,1-5-1.3V22H146l.65,1.37a4.19,4.19,0,0,0,1.18.18c1,.05,1.38-.3,1.38-.74s-.19-.76-2.17-1.57c-2.61-1.07-3.13-2.7-3.13-4.43,0-2.36,1.48-4,4.29-4a10.38,10.38,0,0,1,4.45,1.15Z" transform="translate(-5.08 -7.01)"/><path class="a" d="M157.33,24l.79-.66,5-13.86h3.66l5.08,13.81.79.66v2.27H166V23.92l1-.63-.64-2h-4l-.59,2,1,.66v2.22h-5.41Zm5.88-5.69h2.27l-1.16-3.82Z" transform="translate(-5.08 -7.01)"/><path class="a" d="M182.14,18.33H179.8l-.47-1.78a3.86,3.86,0,0,0-1.56,2.06v4.88l1.63.61v2.09h-6.86V24.1l1.06-.58V15.94l-1.06-.56v-2l3.23-.48h1.44l.39,2.44c.94-1.63,2-2.52,3.26-2.52a2.18,2.18,0,0,1,1.28.33Z" transform="translate(-5.08 -7.01)"/><path class="a" d="M182.09,13.42l1.51-.36V10.34l2.82-.64h1.35v3.36h3.34V16h-3.34v5c0,1.9.42,2.41,1.24,2.41a5.41,5.41,0,0,0,1.65-.3l.69,2.34a9.69,9.69,0,0,1-3.95,1c-2.22,0-3.8-1.14-3.8-5.39V16h-1.51Z" transform="translate(-5.08 -7.01)"/><path class="a" d="M196.39,14c0-3.15,2.3-4.88,5.65-4.88a10.91,10.91,0,0,1,5.29,1.5v3.89h-2.54L204,12.6a6.66,6.66,0,0,0-1.48-.17c-1.36,0-1.63.71-1.63,1.27,0,.84,1.56,1.27,3.36,2.11,2.81,1.3,3.68,3,3.68,5.31,0,3.57-2.42,5.35-5.66,5.35a12.58,12.58,0,0,1-6.19-1.71V20.59h2.59l.91,2.09a6.46,6.46,0,0,0,2.1.3c1.38,0,1.83-.81,1.83-1.52s-1.16-1.17-3.29-2.22C197.55,18,196.39,16.6,196.39,14Z" transform="translate(-5.08 -7.01)"/><path class="a" d="M214.76,22.8c.45,0,1-.53,1.36-1.14V15.94l-1.06-.56v-2l3.73-.48h1.5V23.52l1,.58v2.09h-4.5l-.51-1.68a5.15,5.15,0,0,1-3.71,2c-1.68,0-3-.69-3-5.09V15.94l-1.06-.56v-2l3.7-.48h1.53v7.81C213.82,22.09,214,22.8,214.76,22.8Z" transform="translate(-5.08 -7.01)"/><path class="a" d="M228.66,31.81H221.9V29.72l1.06-.58V15.94l-1.06-.56v-2l3.26-.48h1.45l.27,1.6A4.26,4.26,0,0,1,230,12.78c2.6,0,4.08,1.93,4.08,6.84s-1.51,6.82-4.22,6.82a4,4,0,0,1-2.77-1v3.72l1.53.58ZM227.13,17v5.29c.54.89,1.06,1.1,1.43,1.1.52,0,1.24-.51,1.24-3.72s-.62-3.68-1.24-3.68A2.11,2.11,0,0,0,227.13,17Z" transform="translate(-5.08 -7.01)"/><path class="a" d="M241.6,31.81h-6.76V29.72l1.06-.58V15.94l-1.06-.56v-2l3.25-.48h1.46l.27,1.6A4.26,4.26,0,0,1,243,12.78c2.6,0,4.08,1.93,4.08,6.84s-1.51,6.82-4.23,6.82a4,4,0,0,1-2.76-1v3.72l1.53.58ZM240.07,17v5.29c.54.89,1.06,1.1,1.43,1.1.52,0,1.24-.51,1.24-3.72s-.62-3.68-1.24-3.68A2.09,2.09,0,0,0,240.07,17Z" transform="translate(-5.08 -7.01)"/><path class="a" d="M254,26.19h-6.27V24.1l1.07-.58V10.21l-1.07-.51v-2l3.73-.46H253V23.52l1,.58Z" transform="translate(-5.08 -7.01)"/><path class="a" d="M260,23.52l1,.58v2.09h-6.27V24.1l1.06-.58V15.94l-1.06-.56v-2l3.72-.48H260ZM257.72,7c1.66,0,2.57.86,2.57,2.36s-.91,2.29-2.57,2.29-2.47-.79-2.47-2.29A2.17,2.17,0,0,1,257.72,7Z" transform="translate(-5.08 -7.01)"/><path class="a" d="M266.09,20.44c0,2.16.79,2.87,2.33,2.87a8.17,8.17,0,0,0,3.48-.81l.93,2.21a11.28,11.28,0,0,1-5.62,1.73c-3.24,0-5.44-2.11-5.44-6.64,0-4.7,1.93-7,5.83-7,3.06,0,5.26,1.62,5.26,5.31a11.66,11.66,0,0,1-.25,2.37Zm.08-2.44h2.57c.12-1.78-.55-2.29-1.16-2.29S266.34,16,266.17,18Z" transform="translate(-5.08 -7.01)"/><path class="a" d="M282.64,16.8h-2.32l-.4-1a5.36,5.36,0,0,0-1-.12c-.81,0-1.16.3-1.16.73s.23.54,1.66,1.17c3,1.33,3.65,2.78,3.65,4.79,0,2.74-2.05,4.09-4.42,4.09a11.12,11.12,0,0,1-5-1.3V22H276l.64,1.37a4.19,4.19,0,0,0,1.18.18c1,.05,1.39-.3,1.39-.74S279,22,277,21.23c-2.61-1.07-3.13-2.7-3.13-4.43,0-2.36,1.48-4,4.29-4a10.38,10.38,0,0,1,4.45,1.15Z" transform="translate(-5.08 -7.01)"/></svg>
