<?xml version="1.0" encoding="UTF-8"?>
<svg width="70px" height="44px" viewBox="0 0 70 44" version="1.1" xmlns="http://www.w3.org/2000/svg" xmlns:xlink="http://www.w3.org/1999/xlink">
    <!-- Generator: Sketch 55.1 (78136) - https://sketchapp.com -->
    <title>amazonpay-secondary-logo-rgb_clr</title>
    <desc>Created with Sketch.</desc>
    <g id="Symbols" stroke="none" stroke-width="1" fill="none" fill-rule="evenodd">
        <g id="amazonpay-secondary-logo-rgb_clr">
            <path d="M63.1378238,35.0181347 C55.5031088,40.6525907 44.4354922,43.6484456 34.903886,43.6484456 C21.5458549,43.6484456 9.51709845,38.7103627 0.415284974,30.4917098 C-0.299222798,29.846114 0.337305699,28.9647668 1.19689119,29.465285 C11.0168394,35.1795337 23.161658,38.6215026 35.7054404,38.6215026 C44.1670984,38.6215026 53.4683938,36.8660622 62.0279793,33.2354922 C63.3173575,32.6860104 64.4,34.0841969 63.1378238,35.0181347 M66.3132124,31.3911917 C67.2906736,32.642487 65.226943,37.7945596 64.3056995,40.0958549 C64.0264249,40.792228 64.6248705,41.0733161 65.2559585,40.5455959 C69.3507772,37.1199482 70.4098446,29.9404145 69.5720207,28.9031088 C68.7396373,27.8748705 61.5800518,26.9898964 57.2095855,30.0582902 C56.5367876,30.5297927 56.6528497,31.1826425 57.3981865,31.0919689 C59.8590674,30.7981865 65.3375648,30.1398964 66.3132124,31.3911917" id="Shape" fill="#FF9900"/>
            <g id="Group" transform="translate(9.067358, 0.000000)" fill="#232F3E">
                <path d="M46.1927461,22.1660622 L54.1393782,1.94041451 C54.3062176,1.53056995 54.3914508,1.24222798 54.3914508,1.07357513 C54.3914508,0.785233161 54.2227979,0.64015544 53.8854922,0.64015544 L51.8634715,0.64015544 C51.4772021,0.64015544 51.2142487,0.701813472 51.0673575,0.821502591 C50.9222798,0.943005181 50.7790155,1.20777202 50.6339378,1.61761658 L45.757513,15.6303109 L40.7015544,1.61761658 C40.5564767,1.20777202 40.4132124,0.943005181 40.2681347,0.821502591 C40.123057,0.701813472 39.8582902,0.64015544 39.4720207,0.64015544 L37.3049223,0.64015544 C36.9676166,0.64015544 36.7989637,0.785233161 36.7989637,1.07357513 C36.7989637,1.24222798 36.8823834,1.53056995 37.0510363,1.94041451 L44.0220207,19.1321244 L43.3365285,20.9746114 C42.9266839,22.1316062 42.4696891,22.9259067 41.9637306,23.3593264 C41.457772,23.7927461 40.7468912,24.0085492 39.8329016,24.0085492 C39.423057,24.0085492 39.0984456,23.9831606 38.8590674,23.9360104 C38.6178756,23.8888601 38.4365285,23.8634715 38.3168394,23.8634715 C37.9559585,23.8634715 37.7746114,24.0919689 37.7746114,24.5489637 L37.7746114,25.488342 C37.7746114,25.8256477 37.834456,26.0722798 37.9559585,26.2282383 C38.0756477,26.3841969 38.2678756,26.5002591 38.534456,26.5709845 C39.134715,26.7378238 39.8220207,26.8248705 40.5927461,26.8248705 C41.965544,26.8248705 43.0790155,26.4639896 43.9331606,25.7404145 C44.7909326,25.0204663 45.5435233,23.8272021 46.1927461,22.1660622" id="Path"/>
                <path d="M16.5279793,5.61088083 C16.1779793,4.44300518 15.6792746,3.4492228 15.0282383,2.63134715 C14.3790155,1.8134715 13.584715,1.18601036 12.6453368,0.752590674 C11.707772,0.319170984 10.6595855,0.103367876 9.50259067,0.103367876 C8.41994819,0.103367876 7.35906736,0.306476684 6.3253886,0.716321244 C5.28989637,1.1261658 4.3142487,1.72823834 3.3984456,2.52253886 L3.21891192,1.36554404 C3.14637306,0.884974093 2.86891192,0.643782383 2.3865285,0.643782383 L0.797927461,0.643782383 C0.317357513,0.643782383 0.0761658031,0.884974093 0.0761658031,1.36554404 L0.0761658031,25.6733161 C0.0761658031,26.1556995 0.317357513,26.3950777 0.797927461,26.3950777 L2.92875648,26.3950777 C3.4111399,26.3950777 3.65051813,26.153886 3.65051813,25.6733161 L3.65051813,17.2225389 C5.21554404,18.642487 7.08160622,19.3533679 9.24870466,19.3533679 C10.4274611,19.3533679 11.4992228,19.1176166 12.4621762,18.6497409 C13.4251295,18.1800518 14.2430052,17.5235751 14.9176166,16.6803109 C15.592228,15.8388601 16.1163212,14.8160622 16.4880829,13.6101036 C16.861658,12.4059585 17.0485006,11.0567358 17.0485006,9.5642487 C17.0520725,8.09715026 16.8761658,6.77875648 16.5279793,5.61088083 Z M8.41994819,16.4626943 C6.78056995,16.4626943 5.19196891,15.8860104 3.65233161,14.7290155 L3.65233161,4.65336788 C5.16839378,3.54533679 6.78238342,2.99222798 8.49248705,2.99222798 C11.7676166,2.99222798 13.4051813,5.24455959 13.4051813,9.74559585 C13.4033679,14.2248705 11.742228,16.4626943 8.41994819,16.4626943 Z" id="Shape"/>
                <path d="M32.8147668,1.52150259 C31.7303109,0.583937824 30.0455959,0.114248705 27.7588083,0.114248705 C26.6272021,0.114248705 25.4955959,0.21761658 24.3639896,0.420725389 C23.2305699,0.625647668 22.2803109,0.895854922 21.5095855,1.23316062 C21.2212435,1.35466321 21.0272021,1.47979275 20.9310881,1.61217617 C20.8349741,1.74455959 20.7860104,1.98031088 20.7860104,2.31580311 L20.7860104,3.28963731 C20.7860104,3.72305699 20.9419689,3.94067358 21.2556995,3.94067358 C21.3518135,3.94067358 21.4551813,3.92253886 21.5639896,3.88626943 C21.6727979,3.85 21.7634715,3.82098446 21.8341969,3.79559585 C23.6893782,3.24248705 25.457513,2.96502591 27.1440415,2.96502591 C28.5875648,2.96502591 29.5994819,3.22979275 30.1779793,3.7611399 C30.7564767,4.29067358 31.0448187,5.20466321 31.0448187,6.50492228 L31.0448187,8.88782383 C29.3601036,8.47797927 27.842228,8.27487047 26.4930052,8.27487047 C24.3748705,8.27487047 22.6901554,8.79896373 21.4370466,9.84533679 C20.1857513,10.8917098 19.5582902,12.2953368 19.5582902,14.0525907 C19.5582902,15.6919689 20.0642487,16.9958549 21.0761658,17.9715026 C22.0862694,18.9471503 23.4590674,19.4331606 25.1927461,19.4331606 C26.2282383,19.4331606 27.269171,19.2282383 28.3173575,18.8202073 C29.365544,18.4121762 30.3212435,17.8318653 31.1880829,17.0865285 L31.3694301,18.2779793 C31.4419689,18.7349741 31.7067358,18.9634715 32.165544,18.9634715 L33.7178756,18.9634715 C34.1984456,18.9634715 34.4414508,18.7222798 34.4414508,18.2417098 L34.4414508,5.89196891 C34.4396373,3.91709845 33.8974093,2.46088083 32.8147668,1.52150259 Z M31.0448187,14.8867876 C30.2505181,15.4888601 29.4199482,15.9458549 28.5531088,16.2595855 C27.6862694,16.5733161 26.8556995,16.7292746 26.061399,16.7292746 C25.1220207,16.7292746 24.4002591,16.4826425 23.8943005,15.9893782 C23.388342,15.496114 23.1362694,14.792487 23.1362694,13.8766839 C23.1362694,11.7821244 24.4963731,10.7339378 27.2165803,10.7339378 C27.842228,10.7339378 28.4860104,10.7774611 29.1479275,10.8608808 C29.8098446,10.946114 30.4427461,11.0603627 31.0448187,11.2036269 L31.0448187,14.8867876 Z" id="Shape"/>
            </g>
        </g>
    </g>
</svg>